<?xml version="1.0" standalone="no"?>
<!DOCTYPE svg PUBLIC "-//W3C//DTD SVG 20010904//EN"
 "http://www.w3.org/TR/2001/REC-SVG-20010904/DTD/svg10.dtd">
<svg version="1.0" xmlns="http://www.w3.org/2000/svg"
 width="96.000000pt" height="96.000000pt" viewBox="0 0 96.000000 96.000000"
 preserveAspectRatio="xMidYMid meet">
<metadata>
Created by potrace 1.14, written by Peter Selinger 2001-2017
</metadata>
<g transform="translate(0.000000,96.000000) scale(0.100000,-0.100000)"
fill="#000000" stroke="none">
<path d="M439 950 c-9 -5 -22 -23 -29 -40 l-12 -30 -94 0 c-101 0 -126 -11
-139 -62 -3 -13 -5 -175 -3 -360 3 -308 5 -339 21 -355 16 -16 42 -18 298 -18
l280 0 20 25 c18 24 19 42 16 377 -2 323 -3 354 -20 370 -14 14 -38 19 -117
21 -96 4 -100 5 -106 28 -10 41 -77 66 -115 44z m71 -49 c12 -23 5 -47 -16
-55 -21 -8 -42 3 -49 25 -14 42 44 68 65 30z"/>
</g>
</svg>
